<svg viewBoxSize="575" data-root-id="4150091818165" xmlns="http://www.w3.org/2000/svg" xmlns:xlink="http://www.w3.org/1999/xlink" version="1.1" id="Layer_1" x="61.3699951171875" y="244.45019073486327" viewBox="74.43000030517578 77.19999694824219 161.04000854492188 119.53001403808594" style="position: absolute; height: 86.0996px; width: 116px; top: 244.45px; left: 61.37px;" xml:space="preserve" height="86.09960849725171" width="116" preserveAspectRatio="xMinYMin" zoom="1" editorType="buyer" data-layer-role="icon">
  <linearGradient id="SVGID_1_" gradientUnits="userSpaceOnUse" x1="219.8804" y1="248.0686" x2="77.5059" y2="138.3702" name="Layer %{number}" zoom="1" data-layer-id="8402875518165">
    <stop offset="0" style="stop-color: rgb(98, 156, 39);"/>
    <stop offset="0.9995" style="stop-color: rgb(127, 223, 73);"/>
  </linearGradient>
  <path class="st0" d="M142.01,179.41c-4.78,0-8.66,3.88-8.66,8.66c0,4.78,3.88,8.66,8.66,8.66c4.78,0,8.66-3.88,8.66-8.66   C150.68,183.29,146.8,179.41,142.01,179.41z" style="fill: url(&quot;#SVGID_1_&quot;);" name="Layer %{number}" zoom="1" data-layer-id="4425554918165"/>
  <linearGradient id="SVGID_2_" gradientUnits="userSpaceOnUse" x1="239.8866" y1="222.1032" x2="97.5121" y2="112.4048" name="Layer %{number}" zoom="1" data-layer-id="1156290318165">
    <stop offset="0" style="stop-color: rgb(98, 156, 39);"/>
    <stop offset="0.9995" style="stop-color: rgb(127, 223, 73);"/>
  </linearGradient>
  <circle class="st1" cx="195.72" cy="188.07" r="8.66" style="fill: url(&quot;#SVGID_2_&quot;);" name="Layer %{number}" zoom="1" data-layer-id="0886960518165"/>
  <linearGradient id="SVGID_3_" gradientUnits="userSpaceOnUse" x1="243.5889" y1="217.298" x2="101.2144" y2="107.5996" name="Layer %{number}" zoom="1" data-layer-id="9253844818165">
    <stop offset="0" style="stop-color: rgb(98, 156, 39);"/>
    <stop offset="0.9995" style="stop-color: rgb(127, 223, 73);"/>
  </linearGradient>
  <polygon class="st2" points="118.17,139.07 122.15,149.38 160.33,149.38 152.37,170.02 163.42,170.02 175.35,139.07  " style="fill: url(&quot;#SVGID_3_&quot;);" name="Layer %{number}" zoom="1" data-layer-id="4633818218165"/>
  <linearGradient id="SVGID_4_" gradientUnits="userSpaceOnUse" x1="271.7655" y1="180.7284" x2="129.391" y2="71.03" name="Layer %{number}" zoom="1" data-layer-id="5868731718165">
    <stop offset="0" style="stop-color: rgb(98, 156, 39);"/>
    <stop offset="0.9995" style="stop-color: rgb(127, 223, 73);"/>
  </linearGradient>
  <polygon class="st3" points="102.26,97.82 106.24,108.13 220.44,108.13 196.58,170.02 207.63,170.02 235.47,97.82  " style="fill: url(&quot;#SVGID_4_&quot;);" name="Layer %{number}" zoom="1" data-layer-id="6744729418165"/>
  <linearGradient id="SVGID_5_" gradientUnits="userSpaceOnUse" x1="257.6776" y1="199.0126" x2="115.3031" y2="89.3142" name="Layer %{number}" zoom="1" data-layer-id="3741832518165">
    <stop offset="0" style="stop-color: rgb(98, 156, 39);"/>
    <stop offset="0.9995" style="stop-color: rgb(127, 223, 73);"/>
  </linearGradient>
  <polygon class="st4" points="110.22,118.45 114.19,128.76 190.39,128.76 174.47,170.02 185.53,170.02 205.41,118.45  " style="fill: url(&quot;#SVGID_5_&quot;);" name="Layer %{number}" zoom="1" data-layer-id="6120440218165"/>
  <linearGradient id="SVGID_6_" gradientUnits="userSpaceOnUse" x1="229.5001" y1="235.5835" x2="87.1256" y2="125.8851" name="Layer %{number}" zoom="1" data-layer-id="8634986518165">
    <stop offset="0" style="stop-color: rgb(98, 156, 39);"/>
    <stop offset="0.9995" style="stop-color: rgb(127, 223, 73);"/>
  </linearGradient>
  <polygon class="st5" points="141.31,170.02 145.29,159.69 126.12,159.69 130.1,170.01 130.26,170.01 130.26,170.02  " style="fill: url(&quot;#SVGID_6_&quot;);" name="Layer %{number}" zoom="1" data-layer-id="1025917318165"/>
  <linearGradient id="SVGID_7_" gradientUnits="userSpaceOnUse" x1="257.6023" y1="199.1104" x2="115.2278" y2="89.412" name="Layer %{number}" zoom="1" data-layer-id="4379208118165">
    <stop offset="0" style="stop-color: rgb(98, 156, 39);"/>
    <stop offset="0.9995" style="stop-color: rgb(127, 223, 73);"/>
  </linearGradient>
  <polygon class="st6" points="133.73,77.2 74.43,77.2 78.4,87.51 137.71,87.51  " style="fill: url(&quot;#SVGID_7_&quot;);" name="Layer %{number}" zoom="1" data-layer-id="3656587318165"/>
</svg>
